<?xml version="1.0" standalone="no"?>
<!DOCTYPE svg PUBLIC "-//W3C//DTD SVG 20010904//EN"
 "http://www.w3.org/TR/2001/REC-SVG-20010904/DTD/svg10.dtd">
<svg version="1.0" xmlns="http://www.w3.org/2000/svg"
 width="1024.000000pt" height="1024.000000pt" viewBox="0 0 1024.000000 1024.000000"
 preserveAspectRatio="xMidYMid meet">

<g transform="translate(0.000000,1024.000000) scale(0.100000,-0.100000)"
fill="#000000" stroke="none">
<path d="M4407 7664 c3 -7 9 -14 14 -14 14 0 10 17 -5 23 -10 4 -13 1 -9 -9z"/>
<path d="M4591 7628 c0 -32 -3 -58 -6 -58 -2 0 -30 16 -61 36 -31 20 -66 36
-78 36 -11 0 -197 -1 -413 -3 -215 -2 -389 -1 -386 4 2 4 2 7 -1 7 -8 0 -246
-140 -671 -396 -209 -126 -557 -335 -772 -464 -216 -129 -392 -238 -393 -242
0 -4 151 -7 335 -8 l336 0 82 48 c45 27 143 86 217 132 74 45 145 86 157 91
20 8 22 6 11 -10 -18 -30 -3 -54 32 -49 32 5 39 -9 18 -30 -16 -16 -3 -15 14
1 8 6 43 27 79 46 35 19 152 87 259 151 107 64 274 163 370 219 96 57 208 124
248 147 40 24 75 44 77 44 5 0 398 -232 805 -474 213 -127 230 -137 230 -126
0 5 -16 17 -35 26 -19 9 -35 18 -35 21 0 7 41 -7 82 -27 42 -21 55 -13 53 33
0 15 3 27 7 27 5 0 110 -61 233 -135 l225 -135 335 0 c184 0 335 3 335 8 0 4
-103 68 -228 143 -125 75 -424 255 -664 400 l-438 263 0 126 c0 69 -3 135 -6
148 -7 25 -24 30 -24 6 0 -12 -3 -14 -12 -6 -7 5 -69 10 -137 11 -68 1 -128 4
-132 7 -5 3 -9 -1 -9 -8 0 -9 -3 -9 -10 2 -9 13 -10 13 -11 0 -1 -8 -5 -1 -9
15 -6 25 -8 20 -9 -27z m-141 -8 c8 -5 11 -10 5 -10 -5 0 -17 5 -25 10 -8 5
-10 10 -5 10 6 0 17 -5 25 -10z m-1380 -844 c0 -2 -8 -10 -17 -17 -16 -13 -17
-12 -4 4 13 16 21 21 21 13z"/>
<path d="M5090 6716 c0 -2 7 -7 16 -10 8 -3 12 -2 9 4 -6 10 -25 14 -25 6z"/>
<path d="M3677 6523 c-2 -5 -2 -67 1 -140 l4 -132 164 -3 164 -3 0 143 0 142
-164 0 c-91 0 -167 -3 -169 -7z"/>
<path d="M4080 6390 l0 -139 164 -3 163 -3 7 89 c3 49 6 113 6 143 l0 53 -170
0 -170 0 0 -140z"/>
<path d="M5167 6340 c-4 -34 -7 -212 -7 -394 l0 -331 -228 -136 c-125 -75
-297 -179 -381 -230 l-155 -94 342 -3 342 -2 40 25 c22 14 41 25 42 25 2 0 1
-103 0 -228 l-4 -229 29 -10 c66 -25 261 -102 297 -118 l38 -16 -4 338 -4 339
41 21 c22 12 39 26 38 32 -2 6 3 8 10 6 18 -7 119 54 111 67 -4 7 -3 8 4 4 7
-4 211 112 459 260 246 147 452 267 457 267 10 0 227 -128 811 -478 94 -56
195 -115 225 -131 30 -16 58 -33 62 -39 4 -5 8 20 8 58 0 37 4 67 9 67 6 0
107 -59 225 -130 l215 -130 342 2 342 3 -589 355 c-324 195 -624 375 -666 400
l-77 45 -1 116 c0 64 -3 150 -6 192 -7 75 -7 76 -25 56 -16 -19 -22 -20 -52
-10 -19 7 -46 9 -60 6 -42 -11 -207 -11 -211 0 -3 6 -5 -23 -5 -62 -1 -40 -4
-73 -7 -73 -3 0 -49 26 -102 57 -53 32 -99 58 -102 58 -3 0 -24 13 -48 29 -23
16 -45 26 -49 22 -3 -3 -1 -6 5 -6 6 0 25 -13 42 -30 22 -22 26 -30 14 -30 -9
0 -18 9 -21 20 -5 19 -23 29 -23 12 0 -13 -442 -5 -450 9 -5 8 -16 6 -38 -5
-37 -19 -55 -20 -49 -3 2 6 11 11 19 9 8 -1 15 5 15 13 0 12 -12 8 -51 -14
-28 -16 -50 -34 -48 -41 1 -6 -2 -9 -8 -5 -10 6 -116 -55 -527 -302 -122 -73
-224 -133 -227 -133 -3 0 -7 78 -7 173 -1 165 -13 419 -18 367 -2 -24 -2 -24
-16 -6 -15 19 -15 19 -16 -5 0 -22 -1 -23 -9 -4 -5 11 -9 14 -9 7 -1 -8 -8
-11 -18 -8 -10 3 -55 6 -101 8 -60 1 -86 -2 -91 -11 -6 -10 -10 -10 -16 -1 -4
6 -13 9 -21 6 -9 -4 -18 3 -23 16 -6 16 -9 6 -14 -42z m1083 -140 c0 -5 -6
-10 -14 -10 -8 0 -16 -7 -20 -15 -4 -12 3 -15 33 -15 31 0 40 -4 44 -22 8 -27
-9 -48 -37 -47 -20 0 -20 1 2 10 32 12 23 34 -15 35 -16 1 -35 4 -42 8 -15 10
-14 53 2 59 21 9 47 7 47 -3z m-76 -76 c24 -9 39 -41 24 -50 -7 -4 -10 -4 -6
1 13 14 -13 35 -43 35 -17 0 -34 -8 -43 -22 -9 -12 -18 -19 -21 -16 -8 8 42
58 59 58 8 0 22 -3 30 -6z m-64 -95 c0 -6 -4 -7 -10 -4 -5 3 -10 11 -10 16 0
6 5 7 10 4 6 -3 10 -11 10 -16z m-591 -644 c3 -50 5 -55 23 -61 10 -3 15 -10
12 -16 -4 -7 -9 -6 -14 2 -5 8 -13 9 -26 2 -46 -25 -87 -34 -117 -26 -9 3 -15
10 -12 15 3 5 -1 6 -9 3 -9 -3 -13 -11 -10 -16 4 -6 -2 -7 -17 -3 -22 7 -22 7
-6 -9 9 -10 17 -24 17 -32 0 -20 -30 -18 -45 3 -12 16 -15 15 -43 -15 -22 -23
-39 -32 -62 -32 -28 0 -31 2 -20 15 7 8 18 15 25 15 7 0 24 9 39 21 14 11 26
17 26 13 0 -4 9 2 21 14 24 27 118 74 131 66 4 -3 7 -1 6 5 -2 6 15 22 37 35
22 13 41 25 41 25 1 1 2 -10 3 -24z m2170 -51 c14 -12 -19 -1 -35 12 -18 14
-18 14 6 3 14 -6 27 -13 29 -15z m-2202 -76 c-3 -8 -6 -5 -6 6 -1 11 2 17 5
13 3 -3 4 -12 1 -19z"/>
<path d="M6450 6336 c0 -2 7 -7 16 -10 8 -3 12 -2 9 4 -6 10 -25 14 -25 6z"/>
<path d="M2577 6130 c-8 -249 -9 -1660 -1 -1660 3 0 60 28 127 63 67 35 146
73 175 85 l52 23 0 838 c0 723 -2 840 -14 844 -10 4 -13 1 -9 -9 3 -7 0 -14
-6 -14 -6 0 -11 3 -11 8 0 8 -194 7 -216 -2 -9 -3 -28 1 -45 9 -28 15 -29 15
-30 -7 -1 -22 -1 -22 -8 2 -4 14 -10 -67 -14 -180z"/>
<path d="M3678 6183 c-2 -5 -2 -70 0 -145 l4 -138 164 0 164 0 0 145 0 145
-164 0 c-91 0 -166 -3 -168 -7z"/>
<path d="M4080 6045 l0 -145 164 0 164 0 7 134 c4 74 4 139 0 145 -4 7 -65 11
-171 11 l-164 0 0 -145z"/>
<path d="M6260 5033 c0 -60 3 -125 6 -145 l7 -38 163 0 164 0 0 145 0 145
-170 0 -170 0 0 -107z"/>
<path d="M6670 4995 l0 -145 165 0 165 0 0 145 0 145 -165 0 -165 0 0 -145z"/>
<path d="M7751 4289 l-1 -675 68 8 c70 8 190 32 256 51 l39 11 -6 381 c-4 209
-8 497 -8 640 -1 143 -4 249 -6 235 l-4 -25 -143 0 c-79 0 -142 3 -139 8 2 4
-1 7 -6 7 -6 0 -11 -5 -11 -11 0 -16 -20 0 -30 25 -5 12 -9 -263 -9 -655z"/>
<path d="M6260 4691 c0 -54 3 -119 6 -143 l6 -45 164 -2 164 -2 0 145 0 146
-170 0 -170 0 0 -99z"/>
<path d="M6670 4646 l0 -143 165 -2 165 -2 0 145 0 146 -165 0 -165 0 0 -144z"/>
<path d="M3970 4750 c-239 -19 -463 -61 -672 -127 -64 -20 -115 -40 -112 -45
3 -5 9 -6 14 -3 4 3 6 -4 3 -15 -3 -11 -13 -20 -23 -20 -10 0 -25 -7 -34 -15
-8 -8 -19 -15 -25 -15 -6 0 -10 -3 -9 -7 0 -5 -8 -28 -20 -53 -15 -32 -18 -47
-9 -52 8 -5 6 -13 -7 -27 -21 -23 -15 -50 11 -52 10 -1 5 -4 -12 -8 -16 -4
-43 -4 -60 1 -29 7 -29 7 -10 -8 19 -16 19 -16 -9 -11 -37 6 -64 -2 -45 -14
10 -6 6 -11 -14 -18 -15 -6 -27 -13 -27 -15 0 -7 31 4 46 15 6 5 14 6 17 2 4
-3 7 -2 7 4 0 6 10 11 23 11 12 0 54 9 93 21 102 30 271 67 404 88 91 14 176
18 410 18 308 0 363 -5 595 -51 442 -89 874 -289 1215 -563 273 -220 574 -371
904 -456 188 -48 316 -66 526 -72 389 -11 738 63 1087 232 167 81 271 144 413
251 125 94 146 120 40 51 -147 -95 -368 -199 -510 -239 -108 -30 -295 -68
-392 -79 -152 -16 -440 -7 -584 20 -403 75 -752 248 -1051 523 -356 327 -888
584 -1412 682 -230 44 -553 63 -771 46z"/>
<path d="M3150 4576 c0 -2 7 -7 16 -10 8 -3 12 -2 9 4 -6 10 -25 14 -25 6z"/>
<path d="M3120 4559 c0 -5 5 -7 10 -4 6 3 10 8 10 11 0 2 -4 4 -10 4 -5 0 -10
-5 -10 -11z"/>
<path d="M3074 4545 c-10 -8 -14 -14 -9 -14 6 0 19 6 29 14 11 8 15 15 10 15
-6 0 -19 -7 -30 -15z"/>
<path d="M3078 4493 c7 -3 16 -2 19 1 4 3 -2 6 -13 5 -11 0 -14 -3 -6 -6z"/>
<path d="M3550 4124 c-58 -7 -123 -18 -145 -23 l-40 -11 40 5 c36 4 38 3 21
-10 -16 -12 -17 -17 -6 -30 7 -8 20 -15 29 -16 9 0 -8 -10 -37 -21 -29 -12
-51 -22 -50 -23 2 0 68 4 148 9 115 9 146 14 148 26 8 37 62 58 62 25 0 -8 -7
-15 -16 -15 -28 0 -9 -23 22 -26 16 -1 85 -7 154 -13 462 -41 893 -173 1268
-388 84 -48 282 -182 350 -237 37 -30 102 -75 145 -100 367 -217 748 -316
1162 -303 157 5 397 36 434 56 7 5 -56 11 -140 14 -469 18 -898 169 -1309 461
-433 308 -890 501 -1395 592 -254 45 -617 58 -845 28z m-67 -31 c-7 -2 -19 -2
-25 0 -7 3 -2 5 12 5 14 0 19 -2 13 -5z"/>
</g>
</svg>
